# xmcd
#
# Track frame offsets:
#       150
#       24399
#       46310
#       59319
#       70684
#       89790
#       113177
#       129205
#       142702
#       162447
#       180558
#       206016
#       223353
#       247739
#       267448
#
# Disc length: 3829 seconds
#
# Revision: 0
# Processed by: cddbd v1.4PL0 Copyright (c) Steve Scherf et al.
# Submitted via: WhereIsIt 3.23
#
DISCID=d60ef30f
DTITLE=Various Artist - Blues Story - Vol. 28 - Nouvelle Vague
DYEAR=1900
DGENRE=
TTITLE0=Popa Chubby - Rats Get Whacked
TTITLE1=Lucky Peterson - Time (Mix 1) w/Bootsy Collins
TTITLE2=Kim Lembo - In The Dark
TTITLE3=Colin Linden - Reason Of The Rhyme
TTITLE4=Van Wilks - Memphis Turnaround
TTITLE5=Michael Hill's Blues Mob - Hard Blues For Hard Time
TTITLE6=Rainer and Das Combo - Power Of Delight
TTITLE7=Big Bill Morganfield - Diamonds At Your Feet
TTITLE8=Neal Black - Lost On A Blue HighWay
TTITLE9=Preacher Boy - The Cross Must Move
TTITLE10=The Hoax - Superstition
TTITLE11=Deborah Coleman - Nobody To Blame
TTITLE12=Tinsley Ellis - Cut You Loose
TTITLE13=Tommy Castro - Right As Rain
TTITLE14=William Clarke - Pawnshop Bound
EXTD=
EXTT0=
EXTT1=
EXTT2=
EXTT3=
EXTT4=
EXTT5=
EXTT6=
EXTT7=
EXTT8=
EXTT9=
EXTT10=
EXTT11=
EXTT12=
EXTT13=
EXTT14=
PLAYORDER=
